<?xml version="1.0" standalone="no"?>
<!DOCTYPE svg PUBLIC "-//W3C//DTD SVG 20010904//EN"
 "http://www.w3.org/TR/2001/REC-SVG-20010904/DTD/svg10.dtd">
<svg version="1.0" xmlns="http://www.w3.org/2000/svg"
 width="615.000000pt" height="544.000000pt" viewBox="0 0 615.000000 544.000000"
 preserveAspectRatio="xMidYMid meet">

<g transform="translate(0.000000,544.000000) scale(0.100000,-0.100000)"
fill="#000000" stroke="none">
<path d="M5060 5064 c-67 -14 -298 -123 -403 -189 -66 -42 -71 -54 -10 -24 22
11 69 24 104 30 204 34 374 -66 484 -285 57 -113 60 -158 13 -202 -48 -44
-105 -84 -120 -84 -7 0 -21 21 -30 48 -20 54 -66 128 -106 167 -60 59 -170
148 -212 173 -25 14 -48 30 -51 35 -3 5 -9 8 -13 7 -17 -3 -128 24 -143 35
-17 13 -17 14 2 37 12 14 8 12 -13 -6 -21 -20 -30 -36 -26 -48 3 -10 -6 -33
-21 -55 -31 -46 -54 -125 -50 -173 1 -19 3 -46 4 -59 1 -20 7 -16 42 32 50 68
134 117 199 117 37 0 41 2 30 15 -31 37 -167 -4 -209 -64 -12 -17 -27 -31 -33
-31 -16 0 -1 74 22 112 11 18 20 43 20 55 0 28 33 38 97 28 137 -20 312 -169
390 -331 18 -39 36 -87 39 -106 6 -33 3 -36 -43 -66 -28 -18 -54 -32 -59 -32
-5 1 -25 26 -44 57 -19 31 -63 78 -97 106 l-62 50 4 101 c3 75 2 89 -4 56 -5
-25 -26 -81 -46 -125 -43 -93 -82 -254 -91 -376 -6 -76 -5 -87 11 -93 27 -10
45 12 46 58 0 30 2 36 8 21 5 -11 5 -32 0 -47 -5 -18 -4 -28 3 -28 7 0 8 -13
5 -35 -3 -19 -3 -35 1 -35 4 0 21 -30 37 -67 16 -38 33 -71 38 -74 5 -4 0 -10
-12 -14 -12 -3 -19 -11 -15 -16 4 -6 11 -6 19 1 11 9 20 6 40 -14 26 -26 44
-33 100 -40 43 -5 66 -16 59 -28 -4 -6 -1 -8 7 -6 17 6 78 -23 101 -48 9 -11
22 -41 29 -67 18 -73 23 -48 6 30 -40 177 -32 255 34 368 21 37 39 75 39 83 0
42 176 287 289 404 106 109 143 122 346 120 93 -1 160 2 178 9 32 14 44 48 26
81 -17 31 -236 244 -277 268 l-32 19 15 -30 c9 -16 24 -33 33 -36 32 -12 80
-54 106 -93 45 -69 26 -94 -33 -44 -21 17 -31 35 -31 53 0 15 -6 36 -14 47
-13 17 -13 14 -3 -23 16 -61 0 -76 -75 -71 -32 2 -58 -1 -58 -5 0 -13 -143
-77 -161 -72 -12 4 -18 -2 -22 -23 -7 -32 -123 -142 -150 -142 -10 0 -22 19
-33 53 -36 110 -159 264 -256 321 -55 32 -193 60 -253 50 l-40 -6 55 36 c68
45 99 54 229 68 89 10 113 9 177 -6 41 -10 94 -28 119 -40 53 -27 57 -26 15 4
-57 41 -138 62 -235 63 l-90 0 55 14 c30 8 118 17 195 20 87 4 129 9 110 14
-53 12 -238 8 -305 -7z m-169 -833 c16 -25 29 -49 29 -55 0 -16 -120 -117
-134 -113 -29 9 -46 72 -46 172 0 55 3 110 7 123 5 23 8 21 60 -30 30 -29 67
-73 84 -97z"/>
<path d="M5448 5038 c12 -6 22 -16 22 -22 0 -7 14 -20 31 -30 18 -11 29 -14
25 -7 -4 6 0 11 11 11 10 1 -7 14 -37 30 -30 16 -59 29 -65 29 -5 0 0 -5 13
-11z"/>
<path d="M950 5006 c-88 -20 -286 -93 -277 -102 2 -2 32 8 67 22 35 14 89 27
119 29 31 2 74 12 96 21 29 13 67 18 141 19 94 0 103 -2 144 -29 24 -16 54
-42 68 -58 13 -16 38 -35 56 -42 39 -17 126 -97 126 -117 0 -10 -16 -14 -63
-15 -36 -1 -86 -11 -119 -24 -81 -30 -81 -41 0 -13 46 15 91 23 143 23 66 0
80 -3 120 -29 24 -15 59 -44 77 -63 l32 -34 -22 -11 c-76 -36 -152 -67 -160
-65 -5 1 -8 -2 -8 -8 0 -5 -17 -18 -38 -29 -72 -37 -217 -223 -237 -303 -4
-16 -11 -28 -15 -28 -4 0 -52 24 -106 54 l-99 54 1 54 c2 79 53 172 155 276
44 46 70 78 57 71 -65 -34 -110 -75 -149 -135 -24 -37 -52 -78 -62 -93 -9 -14
-25 -51 -33 -81 -9 -30 -18 -57 -19 -58 -2 -2 -42 17 -89 43 -85 46 -86 47
-86 85 0 134 119 327 253 409 40 25 51 39 15 20 -54 -28 -126 -90 -163 -142
-22 -31 -45 -56 -51 -57 -17 0 -75 -137 -81 -191 -7 -56 -4 -55 -130 -64 l-92
-6 -12 43 c-16 62 -5 157 27 225 49 103 174 215 300 269 32 14 46 23 29 19
-99 -20 -239 -124 -306 -228 -52 -80 -69 -137 -72 -242 l-2 -90 -60 -7 c-36
-3 -65 -2 -72 4 -18 15 -16 114 3 179 31 105 98 198 199 278 l30 23 -30 -18
c-38 -22 -219 -180 -265 -230 l-35 -39 40 35 c22 20 56 46 75 60 l35 24 -19
-28 c-26 -41 -56 -152 -56 -212 0 -64 -15 -84 -69 -91 -36 -5 -47 -2 -58 12
-20 28 -16 76 12 131 l24 49 -25 -30 c-14 -16 -50 -65 -80 -107 -47 -66 -55
-83 -52 -115 4 -52 33 -63 182 -75 67 -5 176 -18 242 -29 67 -10 136 -19 153
-19 42 0 158 -43 186 -70 12 -12 25 -37 28 -56 3 -20 23 -55 45 -82 102 -122
185 -291 208 -422 17 -104 14 -153 -17 -264 -22 -82 -19 -98 7 -29 9 26 24 64
31 83 22 55 27 158 9 214 -15 48 -14 50 15 112 17 35 34 66 40 69 5 4 9 14 9
23 0 10 9 35 20 57 11 22 20 45 20 52 0 11 5 11 21 2 30 -15 189 -69 189 -63
0 9 -56 58 -134 118 -79 61 -80 63 -70 138 9 68 26 73 126 37 45 -16 94 -28
108 -27 35 4 51 66 53 205 2 83 6 114 15 118 12 4 182 -33 225 -50 9 -4 17 -5
17 -2 0 11 -51 146 -65 174 -8 15 -15 42 -15 58 0 25 -7 34 -37 50 -20 11 -48
31 -62 45 -14 14 -69 60 -121 102 -52 41 -123 100 -158 131 -34 30 -89 69
-121 86 -53 28 -67 31 -142 30 -46 -1 -109 -7 -139 -13z m770 -466 c0 -11 9
-43 20 -72 25 -67 25 -88 1 -88 -11 0 -22 4 -26 9 -3 6 -13 10 -23 10 -9 0
-45 2 -78 5 -71 6 -75 2 -94 -106 -17 -95 -41 -176 -56 -189 -11 -9 -26 -6
-63 10 -29 12 -71 21 -100 21 l-51 0 19 50 c57 151 198 287 356 347 76 28 95
29 95 3z m-1567 -145 c-3 -9 -8 -14 -10 -11 -3 3 -2 9 2 15 9 16 15 13 8 -4z"/>
<path d="M1110 4883 c-24 -14 -24 -14 10 -6 19 4 69 8 112 8 42 0 74 3 71 8
-8 13 -167 6 -193 -10z"/>
<path d="M4675 3860 c3 -5 10 -10 16 -10 5 0 9 5 9 10 0 6 -7 10 -16 10 -8 0
-12 -4 -9 -10z"/>
<path d="M2075 3381 c-141 -37 -216 -158 -201 -327 7 -90 14 -108 66 -167 71
-80 136 -99 255 -77 79 15 133 52 171 116 33 56 64 163 64 219 -1 85 -77 192
-157 219 -56 19 -157 28 -198 17z m104 -85 c13 -16 4 -46 -14 -46 -7 0 -18 7
-25 15 -10 12 -10 18 0 30 15 19 24 19 39 1z m-117 -13 c34 -30 12 -103 -31
-103 -26 0 -61 29 -61 51 0 22 42 69 61 69 7 0 21 -7 31 -17z m212 1 c18 -7
21 -39 5 -50 -16 -9 -41 20 -33 39 7 19 7 19 28 11z"/>
<path d="M3978 3354 c-57 -18 -108 -66 -146 -137 -25 -48 -27 -61 -27 -167 0
-110 1 -117 31 -170 38 -67 67 -89 136 -104 62 -15 175 2 239 35 83 42 124
140 124 299 0 93 -3 111 -25 155 -36 70 -94 99 -205 102 -50 2 -98 -3 -127
-13z m96 -59 c3 -9 -1 -18 -10 -22 -19 -7 -28 2 -21 22 8 19 23 19 31 0z m-70
-38 c16 -44 -3 -81 -42 -85 -25 -3 -34 1 -43 20 -14 31 3 75 33 88 32 12 41 8
52 -23z m182 12 c10 -17 -13 -36 -27 -22 -12 12 -4 33 11 33 5 0 12 -5 16 -11z"/>
<path d="M5360 3103 c0 -36 -25 -73 -49 -73 -10 0 -35 12 -56 26 l-38 25 7
-33 c3 -18 15 -45 26 -60 16 -22 17 -28 6 -28 -17 0 -72 60 -81 89 -10 31 -25
15 -25 -25 0 -40 20 -92 44 -117 20 -20 96 -23 113 -6 9 9 14 5 20 -17 4 -16
8 -31 8 -34 3 -17 39 -80 46 -80 16 0 10 29 -26 121 -39 103 -41 109 -21 109
35 0 65 107 36 125 -6 4 -10 -6 -10 -22z"/>
<path d="M1592 3010 c-3 -58 -30 -114 -58 -118 -24 -3 -52 30 -73 83 -10 27
-11 26 -6 -20 3 -27 10 -72 16 -98 10 -44 9 -50 -12 -73 -17 -18 -33 -24 -66
-24 -39 0 -45 3 -58 33 -7 17 -16 44 -20 60 -5 27 -30 37 -37 15 -2 -6 -10 -8
-16 -4 -8 4 -12 34 -12 79 0 49 -3 68 -10 61 -7 -7 -10 -47 -8 -100 3 -86 4
-89 31 -102 15 -7 27 -19 27 -26 0 -16 60 -72 86 -80 30 -9 101 21 123 53 10
14 21 40 25 56 4 21 16 35 36 44 37 16 42 35 37 131 -2 43 -4 55 -5 30z"/>
<path d="M978 2514 c-3 -5 -11 -27 -18 -48 -7 -22 -24 -50 -38 -63 -22 -20
-28 -22 -39 -10 -8 8 -18 36 -23 63 -8 43 -9 39 -5 -31 5 -103 20 -145 49
-145 20 0 25 -15 74 -247 28 -137 59 -286 68 -333 31 -162 110 -257 157 -189
14 19 15 19 21 -13 3 -18 33 -78 65 -133 l59 -100 -30 -10 c-33 -12 -57 -47
-58 -85 0 -28 45 -112 83 -152 13 -14 27 -38 31 -52 7 -29 91 -76 224 -126 43
-15 100 -38 127 -50 28 -11 60 -25 72 -30 l21 -9 -18 -58 -18 -58 -81 -8 c-45
-4 -107 -17 -139 -28 -31 -11 -79 -24 -106 -29 -80 -15 -111 -29 -146 -65 -59
-61 -39 -119 50 -145 19 -6 96 -22 170 -37 124 -25 153 -27 346 -25 204 2 214
1 285 -24 211 -74 277 -85 539 -94 134 -5 285 -15 335 -22 137 -20 1007 -17
1275 5 204 16 619 76 675 97 75 28 113 105 80 158 -33 51 -75 79 -139 92 -130
26 -184 43 -261 82 l-81 41 1 76 0 77 39 33 c88 72 197 211 269 340 l35 64 15
-34 c18 -43 40 -61 69 -57 40 5 60 65 69 203 8 133 23 186 94 350 81 184 151
319 158 301 10 -25 56 -16 79 14 28 38 42 125 32 195 -7 49 -9 54 -12 27 -4
-36 -48 -72 -87 -72 -12 0 -26 -5 -32 -11 -9 -9 -14 -5 -18 17 -4 16 -11 45
-16 64 -5 19 -9 55 -10 80 l-1 45 -9 -50 c-4 -27 -10 -59 -13 -71 -8 -28 -40
-64 -59 -64 -22 0 -57 71 -58 117 0 32 -2 35 -9 16 -20 -50 -23 -142 -5 -188
16 -42 25 -49 63 -48 10 1 13 -8 10 -27 -2 -16 -1 -27 2 -25 4 2 14 -14 24
-35 10 -22 21 -40 26 -40 5 0 7 -9 5 -20 -5 -28 -123 -246 -141 -261 -8 -7
-22 -28 -29 -47 -21 -48 -67 -104 -114 -137 -23 -15 -41 -33 -41 -40 0 -6 -9
-20 -19 -29 -11 -10 -22 -28 -25 -40 -5 -19 -73 -76 -90 -76 -3 0 -25 -14 -49
-30 -25 -17 -50 -30 -56 -30 -6 0 -11 -4 -11 -9 0 -5 -9 -13 -20 -16 -11 -4
-43 -21 -71 -40 -70 -46 -271 -114 -689 -232 -47 -13 -107 -30 -134 -38 -26
-8 -52 -15 -57 -15 -17 0 -9 30 26 93 76 138 127 335 141 537 5 83 11 109 25
123 16 15 18 28 13 100 -12 163 -97 417 -126 375 -7 -9 -8 -8 -4 5 3 10 6 27
6 37 0 25 44 29 130 13 142 -27 241 -10 254 43 5 18 16 23 63 29 76 9 160 50
179 87 14 26 54 168 54 190 0 23 -18 -6 -30 -46 -17 -62 -71 -121 -144 -159
-56 -29 -68 -32 -159 -32 -70 0 -94 -3 -82 -10 9 -5 31 -23 48 -38 31 -28 31
-29 13 -43 -26 -19 -62 -18 -181 5 -95 18 -234 64 -338 111 -26 12 -56 20 -65
18 -10 -2 7 -13 41 -28 102 -42 64 -86 -69 -78 -63 4 -84 11 -180 62 -60 32
-133 76 -162 99 -29 23 -71 55 -93 71 l-40 28 -82 -50 c-122 -74 -195 -113
-261 -139 -63 -24 -130 -30 -141 -12 -4 6 7 28 24 50 18 21 30 39 27 39 -3 0
-27 -13 -53 -29 -113 -69 -414 -165 -513 -164 -147 1 -233 56 -191 122 7 11
14 11 42 -3 55 -28 14 5 -48 38 -74 40 -107 86 -100 141 5 37 5 39 -9 20 -28
-37 -1 -153 40 -175 19 -9 25 -23 28 -62 3 -28 12 -54 19 -59 8 -5 49 -20 92
-35 71 -24 87 -25 170 -19 51 4 121 15 156 26 35 10 74 19 88 19 30 0 27 -11
-28 -120 -43 -83 -76 -173 -88 -238 -7 -35 -5 -46 9 -60 16 -15 16 -28 7 -135
-14 -158 -1 -255 57 -425 43 -127 48 -162 22 -162 -6 0 -45 17 -86 38 -41 21
-88 44 -105 50 -32 12 -104 53 -147 83 -14 11 -29 19 -33 19 -4 0 -71 37 -149
83 -137 81 -270 144 -292 139 -12 -2 -51 36 -56 56 -2 8 -15 27 -31 44 -15 17
-30 42 -33 57 -16 75 -46 160 -60 172 -13 11 -15 11 -14 -2 8 -52 -25 -81 -64
-56 -34 23 -162 196 -190 258 -39 85 -53 170 -37 227 20 76 24 200 9 266 -8
33 -17 56 -20 50z m2094 -149 c20 -19 39 -35 42 -35 3 0 31 -16 62 -36 113
-72 212 -112 301 -119 73 -6 87 -5 126 15 41 20 48 21 83 9 22 -7 44 -12 51
-11 7 2 13 -30 18 -95 4 -60 21 -151 42 -233 29 -107 36 -155 37 -232 1 -79
-2 -100 -16 -110 -9 -7 -24 -40 -33 -73 -37 -130 -123 -252 -249 -351 -118
-94 -163 -114 -251 -114 -40 0 -88 6 -106 14 -42 16 -68 15 -138 -7 -95 -30
-189 -23 -319 22 -251 87 -383 224 -458 476 -39 127 -16 336 51 479 13 28 36
95 51 148 26 93 29 99 66 118 l39 20 29 -21 c25 -19 38 -21 99 -16 58 5 90 15
173 56 57 28 130 68 163 90 33 22 69 40 80 40 11 1 37 -15 57 -34z"/>
<path d="M2985 2233 c-4 -10 -9 -58 -10 -108 l-4 -90 9 85 c5 47 12 95 15 107
6 27 0 30 -10 6z"/>
<path d="M4523 1927 c2 -93 3 -100 29 -122 17 -15 35 -21 51 -18 21 4 29 -1
42 -27 9 -18 31 -38 51 -46 29 -12 39 -12 68 0 19 8 40 24 46 37 14 25 8 126
-9 169 -8 21 -10 16 -10 -33 -1 -70 -21 -123 -52 -132 -28 -9 -42 8 -71 87
-11 32 -24 58 -29 58 -5 0 -16 -14 -24 -31 -9 -16 -22 -29 -28 -27 -18 6 -46
68 -56 128 -9 51 -10 48 -8 -43z"/>
</g>
</svg>
